<svg _ngcontent-serverApp-c42="" width="18" height="19" viewBox="0 0 18 19" xmlns="http://www.w3.org/2000/svg"><path _ngcontent-serverApp-c42="" d="M15.75 0.25H2.25C0.984375 0.25 0 1.26953 0 2.5V12.625C0 13.8906 0.984375 14.875 2.25 14.875H5.625V17.8281C5.625 18.1094 5.80078 18.25 6.04688 18.25C6.11719 18.25 6.1875 18.25 6.29297 18.1797L10.6875 14.875H15.75C16.9805 14.875 18 13.8906 18 12.625V2.5C18 1.26953 16.9805 0.25 15.75 0.25ZM16.3125 12.625C16.3125 12.9414 16.0312 13.1875 15.75 13.1875H10.125L9.66797 13.5391L7.3125 15.2969V13.1875H2.25C1.93359 13.1875 1.6875 12.9414 1.6875 12.625V2.5C1.6875 2.21875 1.93359 1.9375 2.25 1.9375H15.75C16.0312 1.9375 16.3125 2.21875 16.3125 2.5V12.625Z" class="cls-1"></path></svg>