<?xml version="1.0" encoding="UTF-8"?><svg id="Layer_2" xmlns="http://www.w3.org/2000/svg" viewBox="0 0 116 27"><defs><style>.cls-1{fill:#fff;}.cls-2{fill:#cba76e;}</style></defs><g id="_ザイン"><g><rect class="cls-2" x="0" y="0" width="116" height="27" rx="13.5" ry="13.5"/><g><path class="cls-1" d="M35.81,9.04h7.7c.35,0,.88,0,1.39-.03-.03,.42-.03,.94-.03,1.36v6.86c0,.55,.03,1.89,.03,1.95h-1.93s.01-.35,.01-.76h-6.75c.01,.39,.01,.71,.01,.76h-1.93c0-.07,.04-1.29,.04-1.96v-6.85c0-.39,0-.97-.03-1.36,.57,.01,1.11,.03,1.48,.03Zm.42,7.59h6.77v-5.81h-6.77v5.81Z"/><path class="cls-1" d="M57.18,9.39l-1.04,.43,1.19,.73c-.15,.27-.35,.66-.46,1.01-.38,1.25-1.18,3.11-2.45,4.66-1.33,1.64-3.01,2.91-5.65,3.96l-1.65-1.48c2.86-.85,4.41-2.07,5.64-3.47,.95-1.08,1.77-2.77,1.99-3.81h-3.94c-.94,1.22-2.16,2.45-3.54,3.39l-1.57-1.18c2.45-1.48,3.68-3.31,4.37-4.51,.21-.34,.5-.98,.63-1.46l2.06,.67c-.34,.49-.7,1.12-.85,1.43-.01,.03-.03,.04-.04,.07h2.8c.43,0,.91-.07,1.22-.17l.1,.06c-.28-.56-.67-1.3-1.02-1.81l1.11-.45c.35,.5,.85,1.4,1.11,1.92Zm1.68-.64l-1.11,.48c-.29-.59-.74-1.4-1.13-1.93l1.11-.45c.36,.52,.88,1.41,1.13,1.9Z"/><path class="cls-1" d="M64.75,10.99c1.44-.9,3.04-2.3,3.95-3.4l1.51,1.44c-1.06,1.05-2.41,2.14-3.77,3.04v5.66c0,.62,.03,1.48,.13,1.83h-2.21c.06-.34,.1-1.22,.1-1.83v-4.48c-1.44,.76-3.22,1.51-4.95,2.02l-.88-1.76c2.51-.64,4.57-1.56,6.12-2.51Z"/><path class="cls-1" d="M77.35,15.8c2.4-1.41,4.22-3.56,5.1-5.45l1.09,1.98c-1.06,1.89-2.93,3.82-5.18,5.18-1.42,.85-3.22,1.64-5.2,1.98l-1.18-1.85c2.19-.31,4.01-1.02,5.37-1.83Zm0-4.52l-1.43,1.46c-.73-.78-2.48-2.31-3.5-3.03l1.32-1.4c.98,.66,2.8,2.12,3.61,2.97Z"/></g></g></g></svg>