<?xml version="1.0" encoding="UTF-8"?><svg id="Layer_2" xmlns="http://www.w3.org/2000/svg" viewBox="0 0 13.06 13.06"><defs><style>.cls-1{fill:gray;}</style></defs><g id="_ザイン"><g><path class="cls-1" d="M13.06,6.53c0,1.3,0,2.59,0,3.89,0,1.28-.83,2.32-2.07,2.58-.18,.04-.37,.05-.56,.05-2.16,0-4.32,0-6.47,0-1.32,0-2.37-.88-2.6-2.18-.05-.29-.04-.6-.04-.9,0-.27,0-.53,0-.8,0-.41,.28-.7,.66-.69,.38,0,.65,.29,.65,.7,0,.4,0,.8,0,1.19,0,.81,.56,1.37,1.36,1.37,.93,0,1.87,0,2.8,0,1.2,0,2.41,0,3.61,0,.67,0,1.18-.39,1.33-1.01,.03-.13,.04-.26,.04-.39,0-2.55,0-5.1,0-7.65,0-.85-.55-1.4-1.4-1.4-2.12,0-4.23,0-6.35,0-.85,0-1.39,.55-1.39,1.4,0,.4,0,.8,0,1.19,0,.38-.28,.66-.63,.67-.36,0-.66-.26-.67-.63,0-.54-.02-1.07,.02-1.61C1.41,1.1,2.51,.05,3.75,.01c.71-.02,1.43,0,2.14,0,1.51,0,3.02,0,4.53,0,1.28,0,2.31,.83,2.57,2.06,.05,.21,.06,.42,.06,.64,0,1.28,0,2.55,0,3.83Z"/><path class="cls-1" d="M6.22,7.18h-.17c-1.77,0-3.53,0-5.3,0-.11,0-.23,0-.33-.04-.3-.1-.46-.4-.42-.72,.04-.29,.3-.52,.6-.54,.06,0,.12,0,.18,0,1.75,0,3.5,0,5.25,0h.19s-.05-.08-.08-.1c-.24-.24-.48-.48-.71-.71-.29-.29-.29-.69-.03-.96,.26-.26,.66-.25,.94,.03,.64,.64,1.28,1.28,1.92,1.92,.28,.29,.29,.67,0,.95-.64,.64-1.28,1.29-1.93,1.93-.28,.28-.69,.28-.94,.02-.26-.27-.25-.66,.03-.94,.26-.26,.52-.52,.78-.78v-.04Z"/></g></g></svg>