<svg xmlns="http://www.w3.org/2000/svg" viewBox="0 0 127 86.89"><defs><style>.cls-1{fill:gray;opacity:0.88;}.cls-2{fill:#fff;}.cls-3,.cls-4{fill:none;stroke:#fff;stroke-width:2px;}.cls-3{stroke-miterlimit:10;}.cls-4{stroke-linecap:round;stroke-linejoin:round;}</style></defs><g id="Layer_2" data-name="Layer 2"><g id="デザイン"><rect class="cls-1" width="127" height="86.89" rx="8"/><path class="cls-2" d="M18.94,70.45a17.57,17.57,0,0,1-1.88,3.3,33,33,0,0,1,3.35,3.43L19,78.36A28.56,28.56,0,0,0,16,75a15.89,15.89,0,0,1-4.51,3.37L10.27,77a13.36,13.36,0,0,0,4.92-3.44A9.44,9.44,0,0,0,17,70.67H12.91c-.5,0-1.16.07-1.41.08v-1.7c.32,0,1.05.08,1.41.08h4.23A4.08,4.08,0,0,0,18.38,69l1,.74A6.49,6.49,0,0,0,18.94,70.45Z"/><path class="cls-2" d="M27.5,69.71l0,.06h2.42a3.62,3.62,0,0,0,1-.15l1.22.76a4.28,4.28,0,0,0-.39.86,12.7,12.7,0,0,1-2.09,4,11.22,11.22,0,0,1-4.85,3.38L23.4,77.36a9.5,9.5,0,0,0,4.83-3,8.54,8.54,0,0,0,1.71-3.27H26.57a13.74,13.74,0,0,1-3,2.9L22.2,73a10.6,10.6,0,0,0,3.74-3.86,6.05,6.05,0,0,0,.54-1.26l1.75.57C28,68.9,27.64,69.44,27.5,69.71Z"/><path class="cls-2" d="M36.14,69.36h6.6c.3,0,.76,0,1.19,0,0,.36,0,.81,0,1.17v5.87c0,.47,0,1.62,0,1.67H42.27s0-.3,0-.65H36.5c0,.34,0,.61,0,.65H34.86c0-.06,0-1.1,0-1.68V70.5c0-.34,0-.83,0-1.17Zm.36,6.5h5.8v-5H36.5Z"/><path class="cls-2" d="M48.39,72.36h6.44c.57,0,1.1,0,1.41-.08v1.89c-.29,0-.9-.06-1.41-.06H48.39c-.68,0-1.48,0-1.93.06V72.28C46.9,72.32,47.77,72.36,48.39,72.36Z"/><path class="cls-2" d="M59.88,74.53a21,21,0,0,0,.35-4.75,4.7,4.7,0,0,0-.11-1.11h1.76a8.64,8.64,0,0,0-.08,1.1,26.71,26.71,0,0,1-.36,5.15,7,7,0,0,1-2.14,3.44l-1.46-1A5.63,5.63,0,0,0,59.88,74.53Zm3.61,2.16v-7a4.57,4.57,0,0,0-.1-1h1.79a6.75,6.75,0,0,0-.08,1V76a7.67,7.67,0,0,0,3-2.53L69,74.77A13.17,13.17,0,0,1,64.92,78a2.23,2.23,0,0,0-.52.36l-1-.83A4.36,4.36,0,0,0,63.49,76.69Z"/><path class="cls-2" d="M71.36,69.55l5.18-.44c1.24-.11,2.55-.18,3.4-.22v1.53a13.66,13.66,0,0,0-2.31.17A3.65,3.65,0,0,0,75.09,74c0,2,1.85,2.69,3.89,2.8l-.56,1.64c-2.52-.17-4.9-1.51-4.9-4.12a4.78,4.78,0,0,1,1.79-3.7c-1.13.12-3.57.38-5,.68l-.15-1.64C70.67,69.6,71.14,69.57,71.36,69.55Zm7.84,3.68-.92.41A9.51,9.51,0,0,0,77.35,72l.89-.37A14.81,14.81,0,0,1,79.2,73.23Zm1.39-.59-.9.44a10.11,10.11,0,0,0-1-1.62l.88-.41C79.88,71.47,80.33,72.18,80.59,72.64Z"/><path class="cls-2" d="M87.85,71.84c-.06-.14-.11-.29-.16-.42-.09-.28-.16-.5-.24-.71a27.21,27.21,0,0,1-4-.11l-.08-1.37a26.85,26.85,0,0,0,3.75.18c-.12-.39-.24-.77-.38-1.19L88.3,68c.06.43.14.85.22,1.26a13.73,13.73,0,0,0,2.36-.52l.2,1.38a16.3,16.3,0,0,1-2.21.44q.09.3.18.57l.2.54a15.85,15.85,0,0,0,2.29-.48l.24,1.41a15.52,15.52,0,0,1-1.92.38,11.42,11.42,0,0,0,.63,1.06,3.07,3.07,0,0,0,.54.61L90.3,75.8c-.68-.13-2-.29-2.85-.39l.12-1.14,1.51.15a13.93,13.93,0,0,1-.67-1.25,43.16,43.16,0,0,1-5.21,0l-.09-1.42A31.06,31.06,0,0,0,87.85,71.84Zm-3,4c0,.89.84,1.25,2.42,1.25a15.56,15.56,0,0,0,3-.27l-.08,1.52a17.83,17.83,0,0,1-2.92.23c-2.4,0-3.88-.71-3.91-2.42a4,4,0,0,1,.52-1.93l1.48.29A2.26,2.26,0,0,0,84.89,75.86Z"/><path class="cls-2" d="M100.45,69c0,.12,0,.3,0,.49a25.47,25.47,0,0,0,3-.33v1.38c-.79.1-1.88.21-3,.27V72c1.21-.06,2.23-.15,3.2-.29v1.42c-1.08.12-2,.2-3.16.24,0,.46,0,.95.08,1.43a9.36,9.36,0,0,1,3.36,1.81L103,78a9.24,9.24,0,0,0-2.42-1.67c0,.17,0,.32,0,.45,0,1-.77,1.81-2.36,1.81-1.92,0-2.92-.73-2.92-2s1.11-2.07,3-2.07a6,6,0,0,1,.74,0c0-.37,0-.76,0-1.12h-.62c-.7,0-2.06-.06-2.85-.15l0-1.42a20.35,20.35,0,0,0,2.89.23H99c0-.4,0-.83,0-1.24h-.44a26.94,26.94,0,0,1-2.94-.21l0-1.37a21.54,21.54,0,0,0,3,.27H99V69a4.65,4.65,0,0,0-.07-.83h1.62A6.8,6.8,0,0,0,100.45,69ZM98,77.21c.63,0,1-.18,1-.87,0-.13,0-.3,0-.52a6.37,6.37,0,0,0-1-.08c-.86,0-1.32.33-1.32.74S97.2,77.21,98,77.21Z"/><path class="cls-2" d="M113.11,69.2c0,.1,0,.23,0,.37,1.21,0,2.85,0,3.47,0V71c-.72,0-1.83-.06-3.46-.06,0,.61,0,1.27,0,1.8a3,3,0,0,1,.43,1.64c0,1.56-.91,3.55-3.84,4.36l-1.28-1.27a5.32,5.32,0,0,0,2.92-1.36,2.86,2.86,0,0,1-.53.06,2.12,2.12,0,0,1-2.07-2.21,2.26,2.26,0,0,1,2.4-2.24,3.75,3.75,0,0,1,.48,0c0-.26,0-.54,0-.8-1.81,0-3.68.09-5.16.18l0-1.45c1.36,0,3.55,0,5.18-.07,0-.16,0-.28,0-.38a6.86,6.86,0,0,0-.12-1h1.74C113.17,68.36,113.12,69,113.11,69.2Zm-2,5.61c.5,0,.94-.38.77-1.43a.86.86,0,0,0-.77-.42.9.9,0,0,0-.93,1A.89.89,0,0,0,111.11,74.81Z"/><line class="cls-3" x1="76.17" y1="13.5" x2="66.29" y2="13.5"/><polygon class="cls-2" points="73.92 10.54 75.18 13.5 73.92 16.46 80.94 13.5 73.92 10.54"/><line class="cls-3" x1="60.71" y1="13.5" x2="50.83" y2="13.5"/><polygon class="cls-2" points="53.08 10.54 51.82 13.5 53.08 16.46 46.05 13.5 53.08 10.54"/><path class="cls-4" d="M62.39,41.27V25s.41-3.64-2.68-3.64S56.54,25,56.54,25v20.1c-2.09-4-3.63-9.07-6.43-7.62-2.37,1.29-1.21,3.63-.43,5.3s6.66,13.17,7.24,14.8a4.18,4.18,0,0,0,4.51,3.23H71.64c2,0,3.69-1.45,4.3-4a111.28,111.28,0,0,0,2.21-11.37c.14-2.3,0-5.12,0-6.46s-.12-3.66-2.62-3.66-2.59,1.39-2.59,6"/><path class="cls-4" d="M67.67,41.6V35.15a2.4,2.4,0,0,1,2.61-2.6c2.79,0,3.46,3.29,3.46,3.29"/><path class="cls-4" d="M62.39,31.53c1.39-1.17,4.46-2,5.75,1.95"/></g></g></svg>